<svg width="46" height="69" viewBox="0 0 46 69" fill="none" xmlns="http://www.w3.org/2000/svg">
<path d="M5.09054 12.6811C3.85647 12.9919 2.6841 12.7743 1.57344 12.0284C0.52448 11.2203 0 10.1635 0 8.85811V8.11216C0 6.5581 0.493628 5.15946 1.48089 3.91622C2.46814 2.67297 3.70221 1.92702 5.1831 1.67837C10.9215 0.559457 16.6908 0 22.4909 0C29.9571 0 35.7264 1.49189 39.7988 4.47568C43.9329 7.3973 46 11.2824 46 16.1311C46 18.3689 45.6915 20.3892 45.0744 22.1919C44.5191 23.9324 43.5936 25.5176 42.2978 26.9473C41.0637 28.377 39.9222 29.4959 38.8732 30.3041C37.886 31.1122 36.4977 32.1378 34.7083 33.3811C33.0423 34.5622 31.7465 35.4946 30.8209 36.1784C29.8954 36.8622 28.8773 37.8257 27.7666 39.0689C26.7176 40.3122 25.9155 41.6176 25.3602 42.9851C24.0027 46.4662 21.9356 48.2068 19.159 48.2068H17.3078C15.827 48.2068 14.5929 47.6784 13.6056 46.6216C12.6184 45.5027 12.279 44.2595 12.5875 42.8919C13.1429 40.6541 14.1301 38.5405 15.5493 36.5514C17.0302 34.5 18.2951 33.0392 19.3441 32.1689C20.4547 31.2986 22.1207 30.0243 24.3421 28.3459C26.2549 26.9784 27.6432 25.9216 28.507 25.1757C29.4326 24.3676 30.2964 23.3108 31.0986 22.0054C31.9624 20.6378 32.3944 19.2081 32.3944 17.7162C32.3944 12.9297 28.4762 10.5365 20.6398 10.5365C16.0738 10.5365 10.8907 11.2513 5.09054 12.6811ZM16.66 55.946H19.7143C21.1335 55.946 22.3675 56.4743 23.4165 57.5311C24.4655 58.5878 24.9899 59.8311 24.9899 61.2608V63.6851C24.9899 65.1149 24.4655 66.3581 23.4165 67.4149C22.3675 68.4716 21.1335 69 19.7143 69H16.66C15.2408 69 14.0067 68.4716 12.9577 67.4149C11.9088 66.3581 11.3843 65.1149 11.3843 63.6851V61.2608C11.3843 59.8311 11.9088 58.5878 12.9577 57.5311C14.0067 56.4743 15.2408 55.946 16.66 55.946Z" fill="#9FD187"/>
</svg>
